<svg xmlns="http://www.w3.org/2000/svg" xmlns:xlink="http://www.w3.org/1999/xlink" width="1080" zoomAndPan="magnify" viewBox="0 0 810 809.999993" height="1080" preserveAspectRatio="xMidYMid meet" version="1.0"><defs><g/><clipPath id="dc2f1fb8bb"><path d="M 104.816406 99.300781 L 706 99.300781 L 706 711 L 104.816406 711 Z M 104.816406 99.300781 " clip-rule="nonzero"/></clipPath><clipPath id="0e7dda3e01"><path d="M 407.371094 99.652344 L 407.371094 99.300781 L 104.816406 123.519531 L 104.816406 686.480469 L 402.628906 710.347656 L 402.628906 710.699219 L 405.085938 710.523438 L 407.542969 710.699219 L 407.542969 710.347656 L 705.359375 686.480469 L 705.359375 123.519531 Z M 402.628906 705.609375 L 109.554688 682.09375 L 109.554688 127.90625 L 402.628906 104.390625 L 402.628906 111.585938 L 118.855469 135.277344 L 116.75 135.453125 L 116.75 674.546875 L 402.628906 698.414062 Z M 405.085938 693.851562 L 121.488281 670.160156 L 121.488281 139.839844 L 405.085938 116.148438 L 688.6875 139.839844 L 688.6875 670.160156 Z M 700.445312 146.6875 L 700.445312 682.09375 L 407.371094 705.609375 L 407.371094 698.414062 L 693.25 674.546875 L 693.25 135.453125 L 407.371094 111.585938 L 407.371094 104.390625 L 700.445312 127.90625 C 700.445312 127.90625 700.445312 146.6875 700.445312 146.6875 Z M 700.445312 146.6875 " clip-rule="nonzero"/></clipPath><clipPath id="99e423af51"><path d="M 566.398438 280.097656 L 676.648438 280.097656 L 676.648438 390.347656 L 566.398438 390.347656 Z M 566.398438 280.097656 " clip-rule="nonzero"/></clipPath><clipPath id="acc8facd86"><path d="M 566.398438 280.097656 L 676.648438 280.097656 L 676.648438 390.347656 L 566.398438 390.347656 Z M 566.398438 280.097656 " clip-rule="nonzero"/></clipPath></defs><rect x="-81" width="972" fill="#ffffff" y="-80.999999" height="971.999992" fill-opacity="1"/><rect x="-81" width="972" fill="#000000" y="-80.999999" height="971.999992" fill-opacity="1"/><g clip-path="url(#dc2f1fb8bb)"><g clip-path="url(#0e7dda3e01)"><path fill="#ffdf2b" d="M 104.816406 99.300781 L 705.183594 99.300781 L 705.183594 710.171875 L 104.816406 710.171875 Z M 104.816406 99.300781 " fill-opacity="1" fill-rule="nonzero"/></g></g><path stroke-linecap="butt" transform="matrix(1.959045, 0, 0, 1.959045, -13.079398, 380.2592)" fill="none" stroke-linejoin="miter" d="M 172.727122 15.047681 C 174.318299 15.047681 175.111894 15.576079 175.111894 16.628888 C 175.111894 16.886108 174.940414 17.368646 174.597453 18.078494 L 143.687141 67.973265 C 143.084966 68.854594 142.710102 69.831632 142.558562 70.906375 C 142.430949 71.959184 142.365148 73.893321 142.365148 76.706794 L 142.365148 109.164416 C 142.365148 110.582119 142.010224 111.581091 141.302369 112.161332 C 140.614454 112.721634 139.517778 113.000788 138.014335 113.000788 L 115.839546 113.000788 C 114.527523 113.000788 113.626255 112.741574 113.131753 112.227133 C 112.637252 111.688765 112.390002 110.851303 112.390002 109.712754 L 112.390002 74.96607 C 112.390002 73.741781 112.260394 72.752778 112.003174 72.001057 C 111.745954 71.249335 111.261422 70.3042 110.553568 69.165651 L 79.675159 18.722542 C 79.310265 18.122361 79.126821 17.55209 79.126821 17.015716 C 79.126821 15.703692 80.09389 15.047681 82.028028 15.047681 L 108.587527 15.047681 C 109.811816 15.047681 110.703115 15.231125 111.261422 15.596019 C 111.841664 15.940973 112.443838 16.680731 113.067947 17.821274 L 129.312709 47.118475 C 129.74141 47.999804 130.096334 48.440468 130.375488 48.440468 C 130.806183 48.440468 131.191016 48.043671 131.535971 47.248082 L 147.523513 17.821274 C 148.059887 16.680731 148.630159 15.940973 149.23034 15.596019 C 149.854448 15.231125 150.77765 15.047681 152.001939 15.047681 Z M 212.604256 15.047681 C 214.193439 15.047681 214.989028 15.972876 214.989028 17.821274 L 214.989028 109.164416 C 214.989028 110.582119 214.634103 111.581091 213.926249 112.161332 C 213.2164 112.721634 212.121718 113.000788 210.638215 113.000788 L 188.591039 113.000788 C 187.259076 113.000788 186.325904 112.741574 185.787536 112.227133 C 185.271102 111.688765 185.013881 110.851303 185.013881 109.712754 L 185.013881 18.078494 C 185.013881 17.111425 185.229228 16.369674 185.657929 15.855233 C 186.110557 15.316865 186.732672 15.047681 187.52826 15.047681 Z M 232.127083 113.000788 C 231.074274 113.000788 230.236812 112.677767 229.614698 112.033719 C 229.012523 111.367738 228.711435 110.454506 228.711435 109.294023 L 228.711435 18.078494 C 228.711435 17.025685 228.926783 16.262 229.355483 15.789432 C 229.808111 15.294931 230.515966 15.047681 231.483035 15.047681 L 268.45298 15.047681 C 269.591529 15.047681 270.397088 15.199221 270.869655 15.500309 C 271.364157 15.801396 271.794851 16.445444 272.159745 17.434446 L 285.890129 59.399253 C 286.147349 60.109101 286.448437 60.462031 286.793391 60.462031 C 287.072545 60.462031 287.339735 60.109101 287.598949 59.399253 L 299.877733 18.884053 C 300.565648 16.327801 301.748064 15.047681 303.422987 15.047681 L 341.585319 15.047681 C 343.176496 15.047681 343.97009 15.972876 343.97009 17.821274 L 343.97009 109.164416 C 343.97009 110.582119 343.6371 111.581091 342.971118 112.161332 C 342.305137 112.721634 341.230394 113.000788 339.748885 113.000788 L 317.412585 113.000788 C 316.102556 113.000788 315.199294 112.741574 314.704793 112.227133 C 314.232225 111.688765 313.994944 110.851303 313.994944 109.712754 L 313.994944 50.406509 C 313.994944 49.718594 313.823464 49.375634 313.480503 49.375634 C 313.027875 49.375634 312.674945 49.772431 312.415731 50.56802 L 293.399369 110.614022 C 292.777254 112.2052 291.724445 113.000788 290.240942 113.000788 L 276.380951 113.000788 C 274.791768 113.000788 273.728989 112.2052 273.190621 110.614022 L 254.206162 51.598895 C 253.927008 50.717566 253.615951 50.276902 253.270996 50.276902 C 252.820362 50.276902 252.595045 50.761433 252.595045 51.728502 L 252.595045 110.099582 C 252.595045 111.238131 252.423565 112.011786 252.07861 112.420547 C 251.73565 112.807374 250.940061 113.000788 249.693839 113.000788 Z M 232.127083 113.000788 " stroke="#ffdf2b" stroke-width="4.9509" stroke-opacity="1" stroke-miterlimit="4"/><g fill="#ffdf2b" fill-opacity="1"><g transform="translate(142.883594, 384.656818)"><g><path d="M 19.53125 0 C 17.53125 0 15.941406 -0.625 14.765625 -1.875 C 13.597656 -3.125 13.015625 -4.835938 13.015625 -7.015625 L 13.015625 -180.046875 C 13.015625 -182.046875 13.429688 -183.503906 14.265625 -184.421875 C 15.109375 -185.335938 16.445312 -185.796875 18.28125 -185.796875 L 88.390625 -185.796875 C 90.566406 -185.796875 92.113281 -185.503906 93.03125 -184.921875 C 93.945312 -184.335938 94.738281 -183.128906 95.40625 -181.296875 L 121.453125 -101.671875 C 121.953125 -100.328125 122.535156 -99.65625 123.203125 -99.65625 C 123.703125 -99.65625 124.203125 -100.328125 124.703125 -101.671875 L 147.984375 -178.546875 C 149.328125 -183.378906 151.582031 -185.796875 154.75 -185.796875 L 227.125 -185.796875 C 230.125 -185.796875 231.625 -184.046875 231.625 -180.546875 L 231.625 -7.265625 C 231.625 -4.585938 231 -2.707031 229.75 -1.625 C 228.5 -0.539062 226.453125 0 223.609375 0 L 181.296875 0 C 178.785156 0 177.070312 -0.5 176.15625 -1.5 C 175.238281 -2.5 174.78125 -4.085938 174.78125 -6.265625 L 174.78125 -118.6875 C 174.78125 -120.03125 174.445312 -120.703125 173.78125 -120.703125 C 172.945312 -120.703125 172.28125 -119.945312 171.78125 -118.4375 L 135.71875 -4.5 C 134.550781 -1.5 132.546875 0 129.703125 0 L 103.421875 0 C 100.410156 0 98.40625 -1.5 97.40625 -4.5 L 61.34375 -116.4375 C 60.84375 -118.101562 60.257812 -118.9375 59.59375 -118.9375 C 58.757812 -118.9375 58.34375 -118.019531 58.34375 -116.1875 L 58.34375 -5.515625 C 58.34375 -3.335938 58.007812 -1.875 57.34375 -1.125 C 56.675781 -0.375 55.171875 0 52.828125 0 Z M 19.53125 0 "/></g></g></g><g fill="#ffdf2b" fill-opacity="1"><g transform="translate(387.524798, 384.656818)"><g><path d="M 175.53125 -8.015625 C 175.863281 -7.347656 176.03125 -6.429688 176.03125 -5.265625 C 176.03125 -3.753906 175.570312 -2.5 174.65625 -1.5 C 173.738281 -0.5 172.53125 0 171.03125 0 L 122.453125 0 C 118.941406 0 116.6875 -1.753906 115.6875 -5.265625 L 92.15625 -69.859375 C 91.644531 -71.191406 90.804688 -72.191406 89.640625 -72.859375 C 88.472656 -73.535156 86.722656 -73.875 84.390625 -73.875 L 72.875 -73.875 C 71.863281 -73.875 71.109375 -73.535156 70.609375 -72.859375 C 70.109375 -72.191406 69.859375 -71.609375 69.859375 -71.109375 L 69.859375 -7.265625 C 69.859375 -4.585938 69.191406 -2.707031 67.859375 -1.625 C 66.523438 -0.539062 64.4375 0 61.59375 0 L 19.53125 0 C 17.03125 0 15.316406 -0.5 14.390625 -1.5 C 13.472656 -2.5 13.015625 -4.085938 13.015625 -6.265625 L 13.015625 -180.046875 C 13.015625 -183.878906 14.601562 -185.796875 17.78125 -185.796875 L 101.421875 -185.796875 C 125.617188 -185.796875 144.394531 -181.160156 157.75 -171.890625 C 171.101562 -162.628906 177.78125 -149.570312 177.78125 -132.71875 C 177.78125 -121.195312 174.734375 -110.925781 168.640625 -101.90625 C 162.554688 -92.894531 154.671875 -86.554688 144.984375 -82.890625 C 143.984375 -82.390625 143.484375 -81.550781 143.484375 -80.375 C 143.484375 -79.875 143.648438 -79.125 143.984375 -78.125 Z M 99.15625 -111.1875 C 105.5 -111.1875 110.378906 -112.8125 113.796875 -116.0625 C 117.222656 -119.320312 118.9375 -123.703125 118.9375 -129.203125 C 118.9375 -135.378906 116.890625 -140.175781 112.796875 -143.59375 C 108.710938 -147.019531 103.664062 -148.734375 97.65625 -148.734375 L 75.625 -148.734375 C 73.457031 -148.734375 71.953125 -148.359375 71.109375 -147.609375 C 70.273438 -146.859375 69.859375 -145.566406 69.859375 -143.734375 L 69.859375 -116.4375 C 69.859375 -114.601562 70.148438 -113.269531 70.734375 -112.4375 C 71.316406 -111.601562 72.445312 -111.1875 74.125 -111.1875 Z M 99.15625 -111.1875 "/></g></g></g><g fill="#ffdf2b" fill-opacity="1"><g transform="translate(572.585758, 384.656818)"><g/></g></g><g fill="#ffdf2b" fill-opacity="1"><g transform="translate(622.665835, 384.656818)"><g/></g></g><g clip-path="url(#99e423af51)"><path fill="#ffdf2b" d="M 621.222656 279.84375 C 590.800781 279.84375 566.140625 304.503906 566.140625 334.925781 C 566.140625 365.347656 590.800781 390.011719 621.222656 390.011719 C 651.648438 390.011719 676.308594 365.347656 676.308594 334.925781 C 676.308594 304.503906 651.648438 279.84375 621.222656 279.84375 Z M 621.222656 279.84375 " fill-opacity="1" fill-rule="nonzero"/></g><path fill="#ffffff" d="M 610.976562 336.207031 C 603.195312 336.207031 596.886719 342.515625 596.886719 350.296875 C 596.886719 358.082031 603.195312 364.390625 610.976562 364.390625 C 618.757812 364.390625 625.066406 358.082031 625.066406 350.296875 C 625.066406 342.515625 618.757812 336.207031 610.976562 336.207031 Z M 610.976562 336.207031 " fill-opacity="1" fill-rule="nonzero"/><path fill="#ffffff" d="M 618.910156 306.238281 C 619.871094 305.511719 621.121094 305.28125 622.28125 305.609375 L 625.347656 306.488281 C 635.796875 309.472656 643 319.023438 643 329.890625 L 643 332.363281 C 643 334.488281 641.28125 336.207031 639.160156 336.207031 C 637.035156 336.207031 635.316406 334.488281 635.316406 332.363281 L 635.316406 329.890625 C 635.316406 323.109375 631.214844 317.074219 625.066406 314.519531 L 625.066406 350.296875 C 625.066406 352.421875 623.347656 354.140625 621.222656 354.140625 C 619.101562 354.140625 617.382812 352.421875 617.382812 350.296875 L 617.382812 309.304688 C 617.382812 308.101562 617.949219 306.964844 618.910156 306.238281 Z M 618.910156 306.238281 " fill-opacity="1" fill-rule="evenodd"/><path fill="#000000" d="M 617.382812 337.746094 C 615.460938 336.761719 613.28125 336.207031 610.976562 336.207031 C 603.195312 336.207031 596.886719 342.515625 596.886719 350.296875 C 596.886719 358.082031 603.195312 364.390625 610.976562 364.390625 C 618.757812 364.390625 625.066406 358.082031 625.066406 350.296875 L 625.066406 314.519531 C 631.214844 317.074219 635.316406 323.109375 635.316406 329.890625 L 635.316406 332.363281 C 635.316406 334.488281 637.035156 336.207031 639.160156 336.207031 C 641.28125 336.207031 643 334.488281 643 332.363281 L 643 329.890625 C 643 319.023438 635.796875 309.472656 625.347656 306.488281 L 622.28125 305.609375 C 621.121094 305.28125 619.871094 305.511719 618.910156 306.238281 C 617.949219 306.964844 617.382812 308.101562 617.382812 309.304688 Z M 610.976562 343.894531 C 607.4375 343.894531 604.570312 346.761719 604.570312 350.296875 C 604.570312 353.835938 607.4375 356.703125 610.976562 356.703125 C 614.515625 356.703125 617.382812 353.835938 617.382812 350.296875 C 617.382812 346.761719 614.515625 343.894531 610.976562 343.894531 Z M 610.976562 343.894531 " fill-opacity="1" fill-rule="evenodd"/><g clip-path="url(#acc8facd86)"><path fill="#000000" d="M 566.140625 334.925781 C 566.140625 304.503906 590.800781 279.84375 621.222656 279.84375 C 651.648438 279.84375 676.308594 304.503906 676.308594 334.925781 C 676.308594 365.347656 651.648438 390.011719 621.222656 390.011719 C 590.800781 390.011719 566.140625 365.347656 566.140625 334.925781 Z M 621.222656 287.527344 C 595.046875 287.527344 573.828125 308.75 573.828125 334.925781 C 573.828125 361.101562 595.046875 382.324219 621.222656 382.324219 C 647.402344 382.324219 668.621094 361.101562 668.621094 334.925781 C 668.621094 308.75 647.402344 287.527344 621.222656 287.527344 Z M 621.222656 287.527344 " fill-opacity="1" fill-rule="evenodd"/></g></svg>