<svg xmlns="http://www.w3.org/2000/svg" xmlns:xlink="http://www.w3.org/1999/xlink" width="1080" zoomAndPan="magnify" viewBox="0 0 810 809.999993" height="1080" preserveAspectRatio="xMidYMid meet" version="1.0"><defs><g/><clipPath id="3ac3cb53df"><path d="M 38.835938 556 L 765 556 L 765 809 L 38.835938 809 Z M 38.835938 556 " clip-rule="nonzero"/></clipPath><clipPath id="dda2a3f6f6"><path d="M 157 39.128906 L 586 39.128906 L 586 436 L 157 436 Z M 157 39.128906 " clip-rule="nonzero"/></clipPath><clipPath id="897f268372"><path d="M 157 39.128906 L 586 39.128906 L 586 385 L 157 385 Z M 157 39.128906 " clip-rule="nonzero"/></clipPath></defs><rect x="-81" width="972" fill="#ffffff" y="-80.999999" height="971.999992" fill-opacity="1"/><rect x="-81" width="972" fill="#ffde59" y="-80.999999" height="971.999992" fill-opacity="1"/><path fill="#a61600" d="M 247.980469 557.765625 C 247.980469 557.765625 233.976562 607.640625 223.414062 618.609375 C 221.816406 620.289062 220.375 622.050781 219.09375 623.890625 C 212.453125 633.417969 220.296875 646.46875 231.898438 645.507812 C 239.335938 644.867188 246.777344 643.585938 250.9375 641.265625 C 261.421875 635.339844 274.222656 615.167969 274.222656 615.167969 C 274.222656 615.167969 246.21875 566.570312 247.980469 557.765625 Z M 247.980469 557.765625 " fill-opacity="1" fill-rule="nonzero"/><path fill="#ba1f00" d="M 512.648438 511.570312 L 505.605469 581.863281 L 509.128906 657.835938 L 519.609375 665.523438 L 540.652344 623.25 L 549.210938 621.570312 C 557.773438 619.890625 564.253906 613.003906 565.453125 604.4375 L 566.253906 598.996094 C 568.894531 579.941406 566.894531 560.566406 560.414062 542.472656 C 556.890625 532.707031 553.691406 522.859375 552.972656 517.65625 C 551.210938 505.40625 552.011719 424.066406 552.011719 424.066406 L 530.167969 424.066406 Z M 512.648438 511.570312 " fill-opacity="1" fill-rule="nonzero"/><g clip-path="url(#3ac3cb53df)"><path fill="#ffd8dd" d="M 274.300781 615.167969 L 270.78125 676.492188 C 270.78125 676.492188 203.574219 744.699219 152.207031 763.191406 C 100.84375 781.6875 38.835938 806.984375 38.835938 806.984375 L 760.515625 808.507812 C 764.433594 808.507812 765.957031 803.382812 762.59375 801.300781 C 752.59375 795.136719 737.472656 786.570312 723.550781 781.6875 C 700.1875 773.519531 677.945312 780.484375 653.464844 770 C 628.898438 759.511719 513.289062 695.144531 510.886719 668.726562 C 508.488281 642.304688 508.488281 556.082031 508.488281 556.082031 L 274.300781 615.167969 L 270.78125 618.6875 " fill-opacity="1" fill-rule="nonzero"/></g><path fill="#ffaeb6" d="M 476.644531 578.738281 L 478.164062 650.871094 C 478.722656 676.652344 491.046875 700.746094 511.609375 716.199219 C 529.449219 729.570312 555.691406 747.902344 578.09375 763.273438 C 603.699219 780.804688 632.820312 792.65625 663.382812 797.777344 C 673.625 799.539062 683.867188 801.699219 691.546875 804.421875 C 693.386719 805.0625 695.308594 805.863281 697.226562 806.585938 L 765.957031 809.785156 C 769.316406 809.945312 770.835938 805.703125 768.117188 803.703125 C 758.273438 796.496094 741.632812 785.289062 726.429688 779.925781 C 703.070312 771.757812 680.824219 778.722656 656.34375 768.238281 C 631.859375 757.75 516.328125 693.382812 513.847656 666.964844 C 511.367188 640.542969 511.527344 554.242188 511.527344 554.242188 L 273.742188 616.847656 L 283.902344 628.136719 Z M 476.644531 578.738281 " fill-opacity="1" fill-rule="nonzero"/><path fill="#ffaeb6" d="M 120.285156 785.929688 C 141.246094 778.402344 164.929688 762.554688 185.492188 746.382812 C 175.171875 752.625 164.929688 757.910156 155.167969 761.433594 C 103.804688 779.925781 41.875 805.222656 41.875 805.222656 L 68.597656 805.304688 C 85.242188 798.820312 103.324219 792.015625 120.285156 785.929688 Z M 120.285156 785.929688 " fill-opacity="1" fill-rule="nonzero"/><path fill="#ffaeb6" d="M 273.742188 616.925781 L 280.941406 637.582031 C 285.421875 650.472656 292.222656 662.480469 301.664062 672.328125 C 307.023438 677.851562 313.027344 682.65625 320.707031 686.335938 C 361.109375 705.632812 407.996094 705.953125 449.519531 689.300781 L 451.199219 688.660156 C 479.605469 660 503.765625 646.070312 503.765625 605.640625 L 510.808594 484.671875 Z M 273.742188 616.925781 " fill-opacity="1" fill-rule="nonzero"/><path fill="#ffe5e8" d="M 201.253906 294.132812 L 207.09375 399.328125 C 207.09375 399.328125 189.574219 375.953125 187.253906 385.320312 C 183.492188 400.289062 208.535156 449.847656 214.136719 464.816406 C 221.175781 483.550781 234.058594 485.230469 234.058594 508.6875 C 234.058594 532.144531 243.339844 557.203125 243.339844 557.203125 C 243.339844 557.203125 301.746094 686.976562 332.148438 688.179688 C 349.429688 688.820312 377.351562 688.738281 398.15625 688.578125 C 415.515625 688.417969 431.757812 680.171875 442.078125 666.242188 C 463.203125 637.824219 498.246094 590.027344 506.246094 574.816406 C 506.246094 574.816406 513.289062 539.75 513.289062 531.585938 C 513.289062 523.417969 515.609375 509.410156 523.847656 508.207031 C 532.089844 507.007812 548.410156 495.320312 551.851562 482.511719 C 555.371094 469.621094 576.414062 428.710938 578.734375 413.578125 C 581.054688 398.449219 572.894531 378.515625 561.210938 385.558594 C 549.53125 392.605469 540.171875 418.304688 540.171875 418.304688 C 540.171875 418.304688 549.53125 314.226562 530.808594 289.648438 C 512.085938 265.074219 488.726562 261.628906 460.722656 261.628906 C 432.71875 261.628906 296.945312 261.628906 296.945312 261.628906 L 203.574219 261.628906 Z M 201.253906 294.132812 " fill-opacity="1" fill-rule="nonzero"/><path fill="#ffd9dd" d="M 522.570312 268.433594 C 522.570312 268.433594 498.007812 335.765625 505.605469 373.472656 C 513.207031 411.179688 545.050781 434.476562 545.050781 434.476562 L 572.574219 358.5 L 543.851562 261.46875 Z M 522.570312 268.433594 " fill-opacity="1" fill-rule="nonzero"/><path fill="#ffd9dd" d="M 229.175781 261.46875 C 238.777344 318.230469 234.136719 376.511719 215.734375 431.113281 L 208.695312 451.929688 L 188.132812 397.96875 L 197.8125 247.460938 Z M 229.175781 261.46875 " fill-opacity="1" fill-rule="nonzero"/><path fill="#ffd9dd" d="M 551.691406 424.308594 L 480.164062 517.414062 C 480.164062 517.414062 510.808594 534.46875 489.765625 568.574219 C 468.804688 602.835938 442 666.164062 442 666.164062 L 506.167969 574.738281 L 506.40625 573.695312 C 516.007812 537.269531 531.210938 502.765625 550.890625 470.660156 C 564.011719 449.207031 576.253906 422.304688 572.492188 400.53125 C 571.535156 394.285156 555.050781 431.59375 551.691406 424.308594 " fill-opacity="1" fill-rule="nonzero"/><path fill="#ff7580" d="M 247.820312 437.597656 C 247.820312 437.597656 265.339844 412.78125 299.984375 412.78125 C 334.628906 412.78125 345.988281 439.917969 345.988281 439.917969 C 345.988281 439.917969 323.988281 444.324219 299.023438 445.203125 C 274.0625 446.082031 247.820312 437.597656 247.820312 437.597656 Z M 247.820312 437.597656 " fill-opacity="1" fill-rule="nonzero"/><path fill="#e92932" d="M 480.164062 268.433594 L 341.75 429.75 L 430.238281 379.796875 C 430.238281 379.796875 375.59375 425.269531 361.03125 443.761719 C 349.109375 458.972656 334.707031 486.03125 323.347656 501.644531 C 313.984375 514.53125 294.464844 539.351562 283.902344 561.285156 C 273.421875 583.222656 266.941406 605 266.941406 605 C 266.941406 605 269.902344 553.359375 276.0625 535.828125 C 282.222656 518.296875 307.585938 460.414062 307.585938 460.414062 L 232.058594 495.078125 C 232.058594 495.078125 229.417969 489.074219 228.695312 487.953125 L 225.335938 483.070312 L 359.269531 268.355469 L 480.164062 268.355469 Z M 480.164062 268.433594 " fill-opacity="1" fill-rule="nonzero"/><path fill="#104e7d" d="M 359.269531 268.433594 L 341.75 268.433594 L 220.457031 476.746094 L 225.335938 483.152344 Z M 359.269531 268.433594 " fill-opacity="1" fill-rule="nonzero"/><path fill="#104e7d" d="M 268.300781 586.023438 C 269.742188 569.453125 272.300781 546.476562 275.980469 535.828125 C 282.140625 518.296875 307.503906 460.414062 307.503906 460.414062 L 293.582031 465.9375 C 287.183594 482.910156 273.582031 522.539062 268.941406 535.828125 C 262.78125 553.363281 266.859375 597.953125 266.859375 597.953125 C 266.859375 597.953125 266.78125 593.628906 268.300781 586.023438 Z M 268.300781 586.023438 " fill-opacity="1" fill-rule="nonzero"/><g clip-path="url(#dda2a3f6f6)"><path fill="#a61600" d="M 460 271.558594 C 460 271.558594 412.714844 293.011719 374.152344 291.25 C 335.589844 289.488281 279.503906 307.261719 269.019531 291.332031 C 258.539062 275.398438 270.78125 285.246094 241.019531 284.765625 C 211.253906 284.207031 200.695312 264.273438 202.453125 284.765625 C 204.214844 305.261719 207.335938 374.351562 212.773438 384.519531 C 218.214844 394.6875 207.734375 394.6875 207.734375 394.6875 L 188.453125 381.238281 C 188.453125 381.238281 195.492188 313.988281 188.453125 296.457031 C 181.410156 278.921875 181.410156 247.378906 169.171875 222.800781 C 156.929688 198.222656 149.886719 187.738281 169.171875 163.160156 C 188.453125 138.582031 184.933594 135.136719 213.015625 115.84375 L 263.261719 74.375 L 351.988281 39.308594 L 440.800781 50.996094 L 506.246094 74.375 L 548.332031 114.164062 L 585.695312 177.328125 L 585.695312 234.332031 L 566.972656 294.214844 L 571.613281 335.683594 L 573.933594 390.523438 L 545.050781 434.476562 C 543.289062 437.117188 539.128906 435.835938 539.210938 432.632812 L 541.210938 362.664062 L 534.171875 311.425781 C 534.25 311.425781 528.410156 272.277344 460 271.558594 Z M 460 271.558594 " fill-opacity="1" fill-rule="nonzero"/></g><g clip-path="url(#897f268372)"><path fill="#d02300" d="M 191.574219 383.476562 C 195.8125 386.441406 201.734375 383.636719 202.054688 378.433594 C 203.332031 357.621094 203.972656 330.558594 199.894531 320.3125 C 192.851562 302.78125 192.851562 271.238281 180.609375 246.660156 C 168.371094 222.082031 161.328125 211.59375 180.609375 187.015625 C 199.8125 162.519531 196.371094 158.996094 224.214844 139.863281 C 224.375 139.78125 224.535156 139.621094 224.695312 139.542969 L 273.902344 98.871094 C 274.460938 98.390625 275.023438 98.070312 275.660156 97.832031 L 333.507812 75.015625 C 353.191406 67.25 374.472656 64.605469 395.433594 67.410156 L 451.601562 74.773438 C 452.082031 74.855469 452.5625 74.933594 452.960938 75.09375 L 516.40625 97.75 C 517.289062 98.070312 518.089844 98.550781 518.726562 99.191406 L 559.050781 137.300781 C 559.53125 137.699219 559.933594 138.179688 560.171875 138.742188 L 585.535156 181.570312 L 585.535156 179.089844 C 585.535156 177.890625 585.214844 176.6875 584.574219 175.648438 L 548.570312 114.882812 C 548.25 114.324219 547.851562 113.84375 547.453125 113.441406 L 507.207031 75.335938 C 506.566406 74.695312 505.765625 74.214844 504.886719 73.894531 L 441.441406 51.238281 C 440.960938 51.078125 440.558594 50.996094 440.078125 50.917969 L 353.671875 39.550781 C 352.550781 39.390625 351.429688 39.550781 350.390625 39.949219 L 264.140625 73.972656 C 263.5 74.214844 262.859375 74.613281 262.378906 75.015625 L 213.175781 115.683594 C 213.015625 115.765625 212.855469 115.925781 212.695312 116.003906 C 184.933594 135.136719 188.371094 138.742188 169.089844 163.160156 C 149.808594 187.738281 156.847656 198.222656 169.089844 222.800781 C 181.332031 247.378906 181.332031 278.921875 188.371094 296.457031 C 194.371094 311.425781 190.132812 362.824219 188.773438 377.394531 C 188.53125 379.796875 189.652344 382.117188 191.574219 383.476562 Z M 191.574219 383.476562 " fill-opacity="1" fill-rule="nonzero"/></g><path fill="#d02300" d="M 552.8125 386.519531 L 545.769531 335.285156 C 545.769531 335.285156 544.332031 325.835938 534.890625 316.148438 L 541.289062 362.664062 L 539.289062 432.632812 C 539.210938 435.835938 543.371094 437.117188 545.132812 434.476562 L 551.773438 424.308594 Z M 552.8125 386.519531 " fill-opacity="1" fill-rule="nonzero"/><path stroke-linecap="butt" transform="matrix(0.729659, 0, 0, 0.729659, 323.999987, 568.692423)" fill="none" stroke-linejoin="miter" d="M 199.097729 110.998658 L 180.173007 110.998658 L 155.241626 34.218358 L 174.268065 34.218358 L 189.520267 93.845954 L 189.750469 93.845954 L 205.414892 34.218358 L 224.034463 34.218358 Z M 291.761947 101.624631 C 285.375188 108.578864 276.611463 112.053303 265.465417 112.053303 C 254.394321 112.053303 245.625242 108.578864 239.17424 101.624631 C 232.717885 94.557973 229.489708 84.884148 229.489708 72.608508 C 229.489708 60.338222 232.717885 50.696517 239.17424 43.694103 C 245.560999 36.675627 254.324725 33.169066 265.465417 33.169066 C 276.611463 33.169066 285.375188 36.675627 291.761947 43.694103 C 298.218302 50.696517 301.44648 60.338222 301.44648 72.608508 C 301.44648 84.884148 298.218302 94.557973 291.761947 101.624631 Z M 283.137413 72.608508 C 283.137413 56.124995 277.248532 47.880562 265.465417 47.880562 C 253.687655 47.880562 247.798774 56.124995 247.798774 72.608508 C 247.798774 89.097375 253.687655 97.336454 265.465417 97.336454 C 277.248532 97.336454 283.137413 89.097375 283.137413 72.608508 Z M 314.268179 34.218358 L 333.835325 34.218358 L 333.835325 110.998658 L 314.268179 110.998658 Z M 364.960737 72.608508 C 364.960737 80.606679 366.855886 86.811418 370.635477 91.228079 C 374.420421 95.64474 379.468799 97.850393 385.785962 97.850393 C 391.316156 97.850393 397.344229 96.731506 403.864826 94.488378 L 403.864826 109.638862 C 400.647356 110.40977 397.349582 110.998658 393.97686 111.41088 C 390.625551 111.839162 387.19394 112.053303 383.682025 112.053303 C 372.177293 112.053303 363.129831 108.653813 356.539638 101.860186 C 349.949444 95.045144 346.651671 85.29637 346.651671 72.608508 C 346.651671 64.273065 348.09177 57.17964 350.966615 51.32288 C 353.841459 45.46612 357.995797 40.985217 363.424275 37.869464 C 368.863459 34.732297 375.373349 33.169066 382.937885 33.169066 C 386.653233 33.169066 390.154441 33.383207 393.441507 33.81149 C 396.744634 34.218358 399.903215 34.812599 402.917252 35.583507 L 402.917252 50.937426 C 396.391301 48.694298 390.438178 47.575411 385.041821 47.575411 C 378.724658 47.575411 373.794059 49.711468 370.250023 53.994291 C 366.727402 58.27176 364.960737 64.476499 364.960737 72.608508 Z M 419.320462 34.218358 L 468.342719 34.218358 L 468.342719 48.624702 L 437.217306 48.624702 L 437.217306 64.289125 L 466.233429 64.289125 L 466.233429 77.87638 L 437.217306 77.87638 L 437.217306 96.592314 L 468.342719 96.592314 L 468.342719 110.998658 L 419.320462 110.998658 Z M 530.384757 37.376939 L 530.384757 52.425707 C 523.162847 48.779954 515.796392 46.959755 508.301453 46.959755 C 501.845098 46.959755 498.622274 49.475913 498.622274 54.508229 C 498.622274 58.92489 501.427523 61.981755 507.043374 63.67347 C 511.888317 65.215286 515.989119 66.832051 519.340428 68.52912 C 522.713151 70.204774 525.309612 72.01962 527.124458 73.973658 C 530.925463 77.822844 532.825965 82.978292 532.825965 89.429293 C 532.825965 104.510182 523.312746 112.053303 504.297014 112.053303 C 496.165005 112.053303 488.910974 110.22775 482.545629 106.581998 L 482.545629 91.329796 C 489.135822 95.816052 496.041874 98.059181 503.269137 98.059181 C 510.833672 98.059181 514.618616 95.291407 514.618616 89.761212 C 514.618616 87.437781 513.949425 85.537278 512.616397 84.065058 C 511.278015 82.592838 508.970644 81.334759 505.683578 80.290821 C 496.850256 77.480219 490.463497 73.995072 486.523301 69.83538 C 482.604518 65.659629 480.645127 60.552363 480.645127 54.508229 C 480.645127 47.918036 482.936437 42.714407 487.52441 38.891988 C 492.112384 35.074922 498.686516 33.169066 507.246808 33.169066 C 516.219321 33.169066 523.928402 34.571691 530.384757 37.376939 Z M 530.384757 37.376939 " stroke="#004aad" stroke-width="3.944362" stroke-opacity="1" stroke-miterlimit="4"/><g fill="#011530" fill-opacity="0.8314"><g transform="translate(35.975389, 629.758809)"><g><path d="M 6.90625 -126.875 L 6.90625 0 L 25.546875 0 L 25.546875 -50.75 C 29.578125 -50.75 33.546875 -51.410156 37.453125 -52.734375 C 41.367188 -54.054688 44.878906 -56.15625 47.984375 -59.03125 C 51.085938 -62.019531 53.585938 -65.929688 55.484375 -70.765625 C 57.390625 -75.597656 58.34375 -81.640625 58.34375 -88.890625 C 58.34375 -96.140625 57.390625 -102.238281 55.484375 -107.1875 C 53.585938 -112.132812 51.085938 -116.046875 47.984375 -118.921875 C 44.878906 -121.921875 41.367188 -123.992188 37.453125 -125.140625 C 33.546875 -126.296875 29.578125 -126.875 25.546875 -126.875 Z M 25.546875 -69.734375 L 25.546875 -107.875 C 31.179688 -107.875 34.976562 -106.378906 36.9375 -103.390625 C 37.96875 -101.898438 38.65625 -99.882812 39 -97.34375 C 39.351562 -94.8125 39.53125 -91.765625 39.53125 -88.203125 C 39.53125 -84.640625 39.351562 -81.675781 39 -79.3125 C 38.65625 -76.957031 37.96875 -75.085938 36.9375 -73.703125 C 35.09375 -71.054688 31.296875 -69.734375 25.546875 -69.734375 Z M 25.546875 -69.734375 "/></g></g></g><g fill="#011530" fill-opacity="0.8314"><g transform="translate(106.39616, 629.758809)"><g><path d="M 55.40625 -26.0625 L 55.40625 -100.796875 C 55.175781 -105.984375 54.140625 -110.53125 52.296875 -114.4375 C 51.492188 -116.164062 50.488281 -117.863281 49.28125 -119.53125 C 48.070312 -121.195312 46.601562 -122.664062 44.875 -123.9375 C 43.15625 -125.195312 41.113281 -126.226562 38.75 -127.03125 C 36.394531 -127.84375 33.660156 -128.25 30.546875 -128.25 C 27.441406 -128.25 24.679688 -127.84375 22.265625 -127.03125 C 19.847656 -126.226562 17.773438 -125.195312 16.046875 -123.9375 C 14.328125 -122.664062 12.890625 -121.195312 11.734375 -119.53125 C 10.585938 -117.863281 9.609375 -116.164062 8.796875 -114.4375 C 6.960938 -110.53125 5.929688 -105.984375 5.703125 -100.796875 L 5.703125 -26.0625 C 5.929688 -20.769531 6.960938 -16.164062 8.796875 -12.25 C 9.609375 -10.53125 10.585938 -8.863281 11.734375 -7.25 C 12.890625 -5.632812 14.328125 -4.195312 16.046875 -2.9375 C 19.617188 -0.0625 24.453125 1.375 30.546875 1.375 C 36.535156 1.375 41.3125 -0.0625 44.875 -2.9375 C 46.601562 -4.195312 48.070312 -5.632812 49.28125 -7.25 C 50.488281 -8.863281 51.492188 -10.53125 52.296875 -12.25 C 54.140625 -16.164062 55.175781 -20.769531 55.40625 -26.0625 Z M 36.765625 -100.796875 L 36.765625 -26.0625 C 36.765625 -23.988281 36.535156 -22.4375 36.078125 -21.40625 C 35.734375 -20.132812 35.128906 -19.039062 34.265625 -18.125 C 33.398438 -17.207031 32.160156 -16.75 30.546875 -16.75 C 29.054688 -16.75 27.847656 -17.207031 26.921875 -18.125 C 25.203125 -20.082031 24.34375 -22.726562 24.34375 -26.0625 L 24.34375 -100.796875 C 24.34375 -102.640625 24.570312 -104.195312 25.03125 -105.46875 C 25.375 -106.613281 25.976562 -107.675781 26.84375 -108.65625 C 27.707031 -109.632812 28.941406 -110.125 30.546875 -110.125 C 32.160156 -110.125 33.425781 -109.664062 34.34375 -108.75 C 35.957031 -106.789062 36.765625 -104.140625 36.765625 -100.796875 Z M 36.765625 -100.796875 "/></g></g></g><g fill="#011530" fill-opacity="0.8314"><g transform="translate(177.162118, 629.758809)"><g><path d="M 6.90625 -126.875 L 6.90625 0 L 25.546875 0 L 25.546875 -50.75 C 29.578125 -50.75 33.546875 -51.410156 37.453125 -52.734375 C 41.367188 -54.054688 44.878906 -56.15625 47.984375 -59.03125 C 51.085938 -62.019531 53.585938 -65.929688 55.484375 -70.765625 C 57.390625 -75.597656 58.34375 -81.640625 58.34375 -88.890625 C 58.34375 -96.140625 57.390625 -102.238281 55.484375 -107.1875 C 53.585938 -112.132812 51.085938 -116.046875 47.984375 -118.921875 C 44.878906 -121.921875 41.367188 -123.992188 37.453125 -125.140625 C 33.546875 -126.296875 29.578125 -126.875 25.546875 -126.875 Z M 25.546875 -69.734375 L 25.546875 -107.875 C 31.179688 -107.875 34.976562 -106.378906 36.9375 -103.390625 C 37.96875 -101.898438 38.65625 -99.882812 39 -97.34375 C 39.351562 -94.8125 39.53125 -91.765625 39.53125 -88.203125 C 39.53125 -84.640625 39.351562 -81.675781 39 -79.3125 C 38.65625 -76.957031 37.96875 -75.085938 36.9375 -73.703125 C 35.09375 -71.054688 31.296875 -69.734375 25.546875 -69.734375 Z M 25.546875 -69.734375 "/></g></g></g><g fill="#ff3131" fill-opacity="1"><g transform="translate(28.346937, 622.130362)"><g><path d="M 6.90625 -126.875 L 6.90625 0 L 25.546875 0 L 25.546875 -50.75 C 29.578125 -50.75 33.546875 -51.410156 37.453125 -52.734375 C 41.367188 -54.054688 44.878906 -56.15625 47.984375 -59.03125 C 51.085938 -62.019531 53.585938 -65.929688 55.484375 -70.765625 C 57.390625 -75.597656 58.34375 -81.640625 58.34375 -88.890625 C 58.34375 -96.140625 57.390625 -102.238281 55.484375 -107.1875 C 53.585938 -112.132812 51.085938 -116.046875 47.984375 -118.921875 C 44.878906 -121.921875 41.367188 -123.992188 37.453125 -125.140625 C 33.546875 -126.296875 29.578125 -126.875 25.546875 -126.875 Z M 25.546875 -69.734375 L 25.546875 -107.875 C 31.179688 -107.875 34.976562 -106.378906 36.9375 -103.390625 C 37.96875 -101.898438 38.65625 -99.882812 39 -97.34375 C 39.351562 -94.8125 39.53125 -91.765625 39.53125 -88.203125 C 39.53125 -84.640625 39.351562 -81.675781 39 -79.3125 C 38.65625 -76.957031 37.96875 -75.085938 36.9375 -73.703125 C 35.09375 -71.054688 31.296875 -69.734375 25.546875 -69.734375 Z M 25.546875 -69.734375 "/></g></g></g><g fill="#ff3131" fill-opacity="1"><g transform="translate(98.767708, 622.130362)"><g><path d="M 55.40625 -26.0625 L 55.40625 -100.796875 C 55.175781 -105.984375 54.140625 -110.53125 52.296875 -114.4375 C 51.492188 -116.164062 50.488281 -117.863281 49.28125 -119.53125 C 48.070312 -121.195312 46.601562 -122.664062 44.875 -123.9375 C 43.15625 -125.195312 41.113281 -126.226562 38.75 -127.03125 C 36.394531 -127.84375 33.660156 -128.25 30.546875 -128.25 C 27.441406 -128.25 24.679688 -127.84375 22.265625 -127.03125 C 19.847656 -126.226562 17.773438 -125.195312 16.046875 -123.9375 C 14.328125 -122.664062 12.890625 -121.195312 11.734375 -119.53125 C 10.585938 -117.863281 9.609375 -116.164062 8.796875 -114.4375 C 6.960938 -110.53125 5.929688 -105.984375 5.703125 -100.796875 L 5.703125 -26.0625 C 5.929688 -20.769531 6.960938 -16.164062 8.796875 -12.25 C 9.609375 -10.53125 10.585938 -8.863281 11.734375 -7.25 C 12.890625 -5.632812 14.328125 -4.195312 16.046875 -2.9375 C 19.617188 -0.0625 24.453125 1.375 30.546875 1.375 C 36.535156 1.375 41.3125 -0.0625 44.875 -2.9375 C 46.601562 -4.195312 48.070312 -5.632812 49.28125 -7.25 C 50.488281 -8.863281 51.492188 -10.53125 52.296875 -12.25 C 54.140625 -16.164062 55.175781 -20.769531 55.40625 -26.0625 Z M 36.765625 -100.796875 L 36.765625 -26.0625 C 36.765625 -23.988281 36.535156 -22.4375 36.078125 -21.40625 C 35.734375 -20.132812 35.128906 -19.039062 34.265625 -18.125 C 33.398438 -17.207031 32.160156 -16.75 30.546875 -16.75 C 29.054688 -16.75 27.847656 -17.207031 26.921875 -18.125 C 25.203125 -20.082031 24.34375 -22.726562 24.34375 -26.0625 L 24.34375 -100.796875 C 24.34375 -102.640625 24.570312 -104.195312 25.03125 -105.46875 C 25.375 -106.613281 25.976562 -107.675781 26.84375 -108.65625 C 27.707031 -109.632812 28.941406 -110.125 30.546875 -110.125 C 32.160156 -110.125 33.425781 -109.664062 34.34375 -108.75 C 35.957031 -106.789062 36.765625 -104.140625 36.765625 -100.796875 Z M 36.765625 -100.796875 "/></g></g></g><g fill="#ff3131" fill-opacity="1"><g transform="translate(169.533667, 622.130362)"><g><path d="M 6.90625 -126.875 L 6.90625 0 L 25.546875 0 L 25.546875 -50.75 C 29.578125 -50.75 33.546875 -51.410156 37.453125 -52.734375 C 41.367188 -54.054688 44.878906 -56.15625 47.984375 -59.03125 C 51.085938 -62.019531 53.585938 -65.929688 55.484375 -70.765625 C 57.390625 -75.597656 58.34375 -81.640625 58.34375 -88.890625 C 58.34375 -96.140625 57.390625 -102.238281 55.484375 -107.1875 C 53.585938 -112.132812 51.085938 -116.046875 47.984375 -118.921875 C 44.878906 -121.921875 41.367188 -123.992188 37.453125 -125.140625 C 33.546875 -126.296875 29.578125 -126.875 25.546875 -126.875 Z M 25.546875 -69.734375 L 25.546875 -107.875 C 31.179688 -107.875 34.976562 -106.378906 36.9375 -103.390625 C 37.96875 -101.898438 38.65625 -99.882812 39 -97.34375 C 39.351562 -94.8125 39.53125 -91.765625 39.53125 -88.203125 C 39.53125 -84.640625 39.351562 -81.675781 39 -79.3125 C 38.65625 -76.957031 37.96875 -75.085938 36.9375 -73.703125 C 35.09375 -71.054688 31.296875 -69.734375 25.546875 -69.734375 Z M 25.546875 -69.734375 "/></g></g></g></svg>